<svg xmlns="http://www.w3.org/2000/svg" xmlns:xlink="http://www.w3.org/1999/xlink" aria-hidden="true">
    <defs>
        <symbol viewBox="0 0 16 16" id="hamburger-icon">
            <path fill-rule="evenodd"
                d="M0 3.75A.75.75 0 0 1 .75 3h14.5a.75.75 0 0 1 0 1.5H.75A.75.75 0 0 1 0 3.75ZM0 8a.75.75 0 0 1 .75-.75h14.5a.75.75 0 0 1 0 1.5H.75A.75.75 0 0 1 0 8Zm.75 3.5a.75.75 0 0 0 0 1.5h14.5a.75.75 0 0 0 0-1.5H.75Z"
                clip-rule="evenodd" />
        </symbol>
        <symbol viewBox="0 0 128 128" id="html-icon">
            <path fill="#E44D26" d="M19.037 113.876L9.032 1.661h109.936l-10.016 112.198l-45.019 12.48z" />
            <path fill="#F16529" d="m64 116.8l36.378-10.086l8.559-95.878H64z" />
            <path fill="#EBEBEB"
                d="M64 52.455H45.788L44.53 38.361H64V24.599H29.489l.33 3.692l3.382 37.927H64zm0 35.743l-.061.017l-15.327-4.14l-.979-10.975H33.816l1.928 21.609l28.193 7.826l.063-.017z" />
            <path fill="#fff"
                d="M63.952 52.455v13.763h16.947l-1.597 17.849l-15.35 4.143v14.319l28.215-7.82l.207-2.325l3.234-36.233l.335-3.696h-3.708zm0-27.856v13.762h33.244l.276-3.092l.628-6.978l.329-3.692z" />
        </symbol>
        <symbol viewBox="0 0 128 128" id="css-icon">
            <path fill="#1572B6" d="M18.814 114.123L8.76 1.352h110.48l-10.064 112.754l-45.243 12.543l-45.119-12.526z" />
            <path fill="#33A9DC" d="m64.001 117.062l36.559-10.136l8.601-96.354h-45.16v106.49z" />
            <path fill="#fff"
                d="M64.001 51.429h18.302l1.264-14.163H64.001V23.435h34.682l-.332 3.711l-3.4 38.114h-30.95V51.429z" />
            <path fill="#EBEBEB"
                d="m64.083 87.349l-.061.018l-15.403-4.159l-.985-11.031H33.752l1.937 21.717l28.331 7.863l.063-.018v-14.39z" />
            <path fill="#fff"
                d="m81.127 64.675l-1.666 18.522l-15.426 4.164v14.39l28.354-7.858l.208-2.337l2.406-26.881H81.127z" />
            <path fill="#EBEBEB"
                d="M64.048 23.435v13.831H30.64l-.277-3.108l-.63-7.012l-.331-3.711h34.646zm-.047 27.996v13.831H48.792l-.277-3.108l-.631-7.012l-.33-3.711h16.447z" />
        </symbol>

        <symbol viewBox="0 0 256 256" id="js-icon">
            <path fill="#F7DF1E" d="M0 0h256v256H0V0Z" />
            <path
                d="m67.312 213.932l19.59-11.856c3.78 6.701 7.218 12.371 15.465 12.371c7.905 0 12.89-3.092 12.89-15.12v-81.798h24.057v82.138c0 24.917-14.606 36.259-35.916 36.259c-19.245 0-30.416-9.967-36.087-21.996m85.07-2.576l19.588-11.341c5.157 8.421 11.859 14.607 23.715 14.607c9.969 0 16.325-4.984 16.325-11.858c0-8.248-6.53-11.17-17.528-15.98l-6.013-2.58c-17.357-7.387-28.87-16.667-28.87-36.257c0-18.044 13.747-31.792 35.228-31.792c15.294 0 26.292 5.328 34.196 19.247l-18.732 12.03c-4.125-7.389-8.591-10.31-15.465-10.31c-7.046 0-11.514 4.468-11.514 10.31c0 7.217 4.468 10.14 14.778 14.608l6.014 2.577c20.45 8.765 31.963 17.7 31.963 37.804c0 21.654-17.012 33.51-39.867 33.51c-22.339 0-36.774-10.654-43.819-24.574" />
        </symbol>

        <symbol viewBox="0 0 256 256" id="ts-icon">
            <path fill="#3178C6"
                d="M20 0h216c11.046 0 20 8.954 20 20v216c0 11.046-8.954 20-20 20H20c-11.046 0-20-8.954-20-20V20C0 8.954 8.954 0 20 0Z" />
            <path fill="#FFF"
                d="M150.518 200.475v27.62c4.492 2.302 9.805 4.028 15.938 5.179c6.133 1.151 12.597 1.726 19.393 1.726c6.622 0 12.914-.633 18.874-1.899c5.96-1.266 11.187-3.352 15.678-6.257c4.492-2.906 8.048-6.704 10.669-11.394c2.62-4.689 3.93-10.486 3.93-17.391c0-5.006-.749-9.394-2.246-13.163a30.748 30.748 0 0 0-6.479-10.055c-2.821-2.935-6.205-5.567-10.149-7.898c-3.945-2.33-8.394-4.531-13.347-6.602c-3.628-1.497-6.881-2.949-9.761-4.359c-2.879-1.41-5.327-2.848-7.342-4.316c-2.016-1.467-3.571-3.021-4.665-4.661c-1.094-1.64-1.641-3.495-1.641-5.567c0-1.899.489-3.61 1.468-5.135s2.362-2.834 4.147-3.927c1.785-1.094 3.973-1.942 6.565-2.547c2.591-.604 5.471-.906 8.638-.906c2.304 0 4.737.173 7.299.518c2.563.345 5.14.877 7.732 1.597a53.669 53.669 0 0 1 7.558 2.719a41.7 41.7 0 0 1 6.781 3.797v-25.807c-4.204-1.611-8.797-2.805-13.778-3.582c-4.981-.777-10.697-1.165-17.147-1.165c-6.565 0-12.784.705-18.658 2.115c-5.874 1.409-11.043 3.61-15.506 6.602c-4.463 2.993-7.99 6.805-10.582 11.437c-2.591 4.632-3.887 10.17-3.887 16.615c0 8.228 2.375 15.248 7.127 21.06c4.751 5.811 11.963 10.731 21.638 14.759a291.458 291.458 0 0 1 10.625 4.575c3.283 1.496 6.119 3.049 8.509 4.66c2.39 1.611 4.276 3.366 5.658 5.265c1.382 1.899 2.073 4.057 2.073 6.474a9.901 9.901 0 0 1-1.296 4.963c-.863 1.524-2.174 2.848-3.93 3.97c-1.756 1.122-3.945 1.999-6.565 2.632c-2.62.633-5.687.95-9.2.95c-5.989 0-11.92-1.05-17.794-3.151c-5.875-2.1-11.317-5.25-16.327-9.451Zm-46.036-68.733H140V109H41v22.742h35.345V233h28.137V131.742Z" />
        </symbol>

        <symbol viewBox="0 0 256 228" id="react-icon">
            <path fill="#00D8FF"
                d="M210.483 73.824a171.49 171.49 0 0 0-8.24-2.597c.465-1.9.893-3.777 1.273-5.621c6.238-30.281 2.16-54.676-11.769-62.708c-13.355-7.7-35.196.329-57.254 19.526a171.23 171.23 0 0 0-6.375 5.848a155.866 155.866 0 0 0-4.241-3.917C100.759 3.829 77.587-4.822 63.673 3.233C50.33 10.957 46.379 33.89 51.995 62.588a170.974 170.974 0 0 0 1.892 8.48c-3.28.932-6.445 1.924-9.474 2.98C17.309 83.498 0 98.307 0 113.668c0 15.865 18.582 31.778 46.812 41.427a145.52 145.52 0 0 0 6.921 2.165a167.467 167.467 0 0 0-2.01 9.138c-5.354 28.2-1.173 50.591 12.134 58.266c13.744 7.926 36.812-.22 59.273-19.855a145.567 145.567 0 0 0 5.342-4.923a168.064 168.064 0 0 0 6.92 6.314c21.758 18.722 43.246 26.282 56.54 18.586c13.731-7.949 18.194-32.003 12.4-61.268a145.016 145.016 0 0 0-1.535-6.842c1.62-.48 3.21-.974 4.76-1.488c29.348-9.723 48.443-25.443 48.443-41.52c0-15.417-17.868-30.326-45.517-39.844Zm-6.365 70.984c-1.4.463-2.836.91-4.3 1.345c-3.24-10.257-7.612-21.163-12.963-32.432c5.106-11 9.31-21.767 12.459-31.957c2.619.758 5.16 1.557 7.61 2.4c23.69 8.156 38.14 20.213 38.14 29.504c0 9.896-15.606 22.743-40.946 31.14Zm-10.514 20.834c2.562 12.94 2.927 24.64 1.23 33.787c-1.524 8.219-4.59 13.698-8.382 15.893c-8.067 4.67-25.32-1.4-43.927-17.412a156.726 156.726 0 0 1-6.437-5.87c7.214-7.889 14.423-17.06 21.459-27.246c12.376-1.098 24.068-2.894 34.671-5.345a134.17 134.17 0 0 1 1.386 6.193ZM87.276 214.515c-7.882 2.783-14.16 2.863-17.955.675c-8.075-4.657-11.432-22.636-6.853-46.752a156.923 156.923 0 0 1 1.869-8.499c10.486 2.32 22.093 3.988 34.498 4.994c7.084 9.967 14.501 19.128 21.976 27.15a134.668 134.668 0 0 1-4.877 4.492c-9.933 8.682-19.886 14.842-28.658 17.94ZM50.35 144.747c-12.483-4.267-22.792-9.812-29.858-15.863c-6.35-5.437-9.555-10.836-9.555-15.216c0-9.322 13.897-21.212 37.076-29.293c2.813-.98 5.757-1.905 8.812-2.773c3.204 10.42 7.406 21.315 12.477 32.332c-5.137 11.18-9.399 22.249-12.634 32.792a134.718 134.718 0 0 1-6.318-1.979Zm12.378-84.26c-4.811-24.587-1.616-43.134 6.425-47.789c8.564-4.958 27.502 2.111 47.463 19.835a144.318 144.318 0 0 1 3.841 3.545c-7.438 7.987-14.787 17.08-21.808 26.988c-12.04 1.116-23.565 2.908-34.161 5.309a160.342 160.342 0 0 1-1.76-7.887Zm110.427 27.268a347.8 347.8 0 0 0-7.785-12.803c8.168 1.033 15.994 2.404 23.343 4.08c-2.206 7.072-4.956 14.465-8.193 22.045a381.151 381.151 0 0 0-7.365-13.322Zm-45.032-43.861c5.044 5.465 10.096 11.566 15.065 18.186a322.04 322.04 0 0 0-30.257-.006c4.974-6.559 10.069-12.652 15.192-18.18ZM82.802 87.83a323.167 323.167 0 0 0-7.227 13.238c-3.184-7.553-5.909-14.98-8.134-22.152c7.304-1.634 15.093-2.97 23.209-3.984a321.524 321.524 0 0 0-7.848 12.897Zm8.081 65.352c-8.385-.936-16.291-2.203-23.593-3.793c2.26-7.3 5.045-14.885 8.298-22.6a321.187 321.187 0 0 0 7.257 13.246c2.594 4.48 5.28 8.868 8.038 13.147Zm37.542 31.03c-5.184-5.592-10.354-11.779-15.403-18.433c4.902.192 9.899.29 14.978.29c5.218 0 10.376-.117 15.453-.343c-4.985 6.774-10.018 12.97-15.028 18.486Zm52.198-57.817c3.422 7.8 6.306 15.345 8.596 22.52c-7.422 1.694-15.436 3.058-23.88 4.071a382.417 382.417 0 0 0 7.859-13.026a347.403 347.403 0 0 0 7.425-13.565Zm-16.898 8.101a358.557 358.557 0 0 1-12.281 19.815a329.4 329.4 0 0 1-23.444.823c-7.967 0-15.716-.248-23.178-.732a310.202 310.202 0 0 1-12.513-19.846h.001a307.41 307.41 0 0 1-10.923-20.627a310.278 310.278 0 0 1 10.89-20.637l-.001.001a307.318 307.318 0 0 1 12.413-19.761c7.613-.576 15.42-.876 23.31-.876H128c7.926 0 15.743.303 23.354.883a329.357 329.357 0 0 1 12.335 19.695a358.489 358.489 0 0 1 11.036 20.54a329.472 329.472 0 0 1-11 20.722Zm22.56-122.124c8.572 4.944 11.906 24.881 6.52 51.026c-.344 1.668-.73 3.367-1.15 5.09c-10.622-2.452-22.155-4.275-34.23-5.408c-7.034-10.017-14.323-19.124-21.64-27.008a160.789 160.789 0 0 1 5.888-5.4c18.9-16.447 36.564-22.941 44.612-18.3ZM128 90.808c12.625 0 22.86 10.235 22.86 22.86s-10.235 22.86-22.86 22.86s-22.86-10.235-22.86-22.86s10.235-22.86 22.86-22.86Z" />
        </symbol>

        <symbol viewBox="0 0 256 256" id="next-icon">
            <g fill="none">
                <rect width="256" height="256" fill="#F4F2ED" rx="60" />
                <path fill="#000"
                    d="M121.451 28.054c-.43.039-1.799.176-3.031.273c-28.406 2.561-55.014 17.889-71.867 41.447C37.17 82.873 31.167 97.731 28.9 113.47c-.801 5.494-.899 7.117-.899 14.565c0 7.449.098 9.072.9 14.565c5.434 37.556 32.16 69.111 68.406 80.802c6.491 2.092 13.333 3.519 21.114 4.379c3.031.332 16.129.332 19.16 0c13.431-1.486 24.809-4.809 36.031-10.538c1.72-.879 2.053-1.114 1.818-1.309c-.156-.118-7.488-9.952-16.285-21.838l-15.992-21.603l-20.04-29.658c-11.026-16.305-20.097-29.639-20.176-29.639c-.078-.019-.156 13.158-.195 29.248c-.059 28.172-.078 29.306-.43 29.97c-.508.958-.899 1.349-1.721 1.78c-.625.312-1.173.371-4.125.371h-3.382l-.9-.567a3.652 3.652 0 0 1-1.31-1.427l-.41-.88l.04-39.198l.058-39.218l.606-.763c.313-.41.978-.938 1.447-1.192c.801-.391 1.114-.43 4.496-.43c3.989 0 4.653.156 5.69 1.29c.293.313 11.143 16.657 24.125 36.344a89121.985 89121.985 0 0 0 39.452 59.765l15.836 23.989l.802-.528c7.096-4.614 14.604-11.183 20.547-18.026c12.649-14.526 20.802-32.238 23.539-51.124c.801-5.493.899-7.116.899-14.565c0-7.448-.098-9.071-.899-14.565c-5.435-37.556-32.161-69.11-68.407-80.801c-6.393-2.073-13.196-3.5-20.821-4.36c-1.877-.196-14.8-.41-16.422-.254Zm40.938 60.489c.938.469 1.701 1.368 1.975 2.306c.156.509.195 11.379.156 35.875l-.059 35.152l-6.197-9.502l-6.217-9.501v-25.552c0-16.52.078-25.807.195-26.257c.313-1.094.997-1.954 1.936-2.463c.801-.41 1.095-.45 4.164-.45c2.894 0 3.402.04 4.047.392Z" />
            </g>
        </symbol>

        <symbol viewBox="0 0 128 128" id="reactrouter-icon">
            <path fill="#F44250"
                d="M80.522 44.186c-1.833-.593-2.78-.393-4.702-.609c-2.972-.333-4.156-1.528-4.658-4.603c-.281-1.717.05-4.23-.667-5.786c-1.372-2.967-4.584-4.298-7.81-3.538c-2.724.642-4.99 3.442-5.116 6.317c-.143 3.281 1.675 6.082 4.796 7.048c1.483.46 3.059.692 4.608.809c2.84.213 3.059 1.837 3.827 3.174c.484.843.954 1.673.954 4.186s-.473 3.344-.954 4.187c-.768 1.333-1.716 2.207-4.557 2.423c-1.548.118-3.127.35-4.607.81c-3.122.969-4.94 3.766-4.796 7.048c.125 2.874 2.392 5.674 5.116 6.316c3.226.763 6.437-.57 7.81-3.538c.72-1.556 1.115-3.319 1.396-5.035c.505-3.075 1.689-4.27 4.658-4.604c1.923-.216 3.912 0 5.714-1.052c1.903-1.431 3.604-3.579 3.604-6.555c0-2.976-1.833-6.096-4.616-6.998z" />
            <path fill="#121212"
                d="M50.03 58.159c-3.747 0-6.802-3.15-6.802-7.01c0-3.861 3.055-7.01 6.802-7.01s6.802 3.149 6.802 7.01c0 3.858-3.059 7.01-6.802 7.01zM37.498 72.405c-3.74-.009-6.787-3.17-6.778-7.035c.009-3.857 3.077-6.997 6.826-6.985c3.743.01 6.79 3.171 6.778 7.035c-.009 3.855-3.077 6.995-6.826 6.985zm50.544 0c-3.752.022-6.832-3.106-6.853-6.957c-.021-3.867 3.014-7.041 6.75-7.063c3.753-.021 6.833 3.106 6.854 6.958c.02 3.863-3.014 7.04-6.751 7.062zM12.958 97.012c-.476-.513-.544-1.137-.748-3.234c-.16-1.629-1.022-2.454-2.497-2.744c1.748-.223 3.041-1.562 3.041-3.614c0-2.744-1.838-4.462-5.537-4.462H0v14.054h3.79V92.35h2.564c1.294 0 1.998.357 2.111 1.963c.114 1.45.295 2.32.59 2.7h3.904zM3.79 89.428v-3.436h2.746c1.634 0 2.451.602 2.451 1.74c0 1.294-.817 1.696-2.451 1.696H3.79zm17.585 4.037c-.34.781-.976 1.116-1.975 1.116c-1.112 0-2.02-.58-2.11-1.807h7.103V91.77c0-2.7-1.793-4.975-5.174-4.975c-3.155 0-5.515 2.253-5.515 5.399c0 3.167 2.315 5.086 5.56 5.086c2.678 0 4.54-1.272 5.061-3.547l-2.95-.268zm-4.04-2.431c.136-.937.658-1.651 1.838-1.651c1.09 0 1.68.758 1.725 1.65h-3.563zm14.404 1.829c0 1.294-.84 2.052-1.884 2.052c-.612 0-1.02-.334-1.02-.847c0-.647.521-.915 1.406-1.093l1.498-.268v.156zm3.609-2.164c0-2.766-1.975-3.904-4.653-3.904c-3.04 0-4.698 1.517-5.015 3.703l3.404.224c.159-.737.567-1.25 1.384-1.25c.885 0 1.271.491 1.271 1.316v.157l-2.837.468c-2.2.38-3.608 1.205-3.608 3.123c0 1.696 1.294 2.7 3.268 2.7c1.611 0 2.769-.603 3.359-1.763c.34 1.138 1.316 1.762 2.564 1.762c1.044 0 1.77-.29 2.292-.646v-1.92a2.124 2.124 0 0 1-.817.157c-.386 0-.612-.223-.612-.736V90.7zm1.848 1.339c0 3.167 2.338 5.242 5.538 5.242c3.04 0 4.743-1.919 4.993-4.328l-3.019-.223c-.25 1.227-.862 1.83-1.929 1.83c-1.112 0-1.884-.737-1.884-2.521s.772-2.521 1.884-2.521c1.067 0 1.68.58 1.93 1.807l3.018-.201c-.25-2.387-1.952-4.328-4.993-4.328c-3.2 0-5.538 2.097-5.538 5.243zm12.3 2.208c0 2.343 1.61 3.034 3.313 3.034c1.384 0 2.27-.335 3.041-.892v-2.343c-.613.246-1.112.335-1.566.335c-.749 0-1.157-.335-1.157-1.182V89.56h2.632v-2.498h-2.632v-2.744h-2.315l-.34 1.294c-.25.915-.568 1.45-1.59 1.606l-.748.112v2.23h1.361v4.685zm24.897 2.766c-.476-.513-.545-1.137-.749-3.234c-.159-1.629-1.021-2.454-2.496-2.744c1.747-.223 3.04-1.562 3.04-3.614c0-2.744-1.837-4.462-5.537-4.462h-7.216v14.054h3.79V92.35h2.564c1.294 0 1.997.357 2.11 1.963c.114 1.45.296 2.32.59 2.7h3.904zm-9.168-7.584v-3.436h2.746c1.634 0 2.45.602 2.45 1.74c0 1.294-.816 1.696-2.45 1.696h-2.747zm13.613 2.61c0-1.495.545-2.521 1.838-2.521c1.271 0 1.838 1.026 1.838 2.52s-.567 2.521-1.838 2.521c-1.293 0-1.838-1.026-1.838-2.52zm7.376 0c0-3.079-2.247-5.243-5.538-5.243c-3.313 0-5.537 2.164-5.537 5.243c0 3.1 2.224 5.242 5.537 5.242c3.29 0 5.538-2.142 5.538-5.242zm8.13-.09c0 1.517-.453 2.499-1.61 2.499c-1.113 0-1.5-.736-1.5-2.075v-5.309H87.56v6.269c0 2.074.84 3.948 3.608 3.948c1.52 0 2.632-.647 3.177-1.762v1.494h3.676v-9.949h-3.676v4.885zm6.037 2.298c0 2.343 1.611 3.034 3.313 3.034c1.384 0 2.27-.335 3.041-.892v-2.343c-.613.246-1.112.335-1.566.335c-.748 0-1.158-.335-1.158-1.182V89.56h2.633v-2.498h-2.633v-2.744h-2.314l-.34 1.294c-.25.915-.568 1.45-1.59 1.606l-.748.112v2.23h1.362v4.685zm14.896-.78c-.34.78-.975 1.115-1.974 1.115c-1.112 0-2.019-.58-2.111-1.807h7.104V91.77c0-2.7-1.793-4.975-5.175-4.975c-3.154 0-5.515 2.253-5.515 5.399c0 3.167 2.315 5.086 5.561 5.086c2.678 0 4.539-1.272 5.061-3.547l-2.951-.268zm-4.039-2.432c.136-.937.658-1.651 1.838-1.651c1.09 0 1.68.758 1.724 1.65h-3.562zm16.4-3.86c-.25-.2-.794-.379-1.407-.379c-1.339 0-2.405.915-2.769 2.03v-1.762h-3.676v9.95h3.676v-4.551c0-1.674.84-2.298 2.201-2.298c.704 0 1.249.134 1.749.424l.226-3.414z" />
        </symbol>

        <symbol viewBox="0 0 256 256" id="redux-icon">
            <g fill="none">
                <rect width="256" height="256" fill="#764ABC" rx="60" />
                <path fill="#fff"
                    d="M166.579 165.599c7.381-.764 12.98-7.127 12.725-14.762c-.254-7.635-6.617-13.743-14.252-13.743h-.509c-7.89.254-13.998 6.871-13.744 14.761c.255 3.818 1.782 7.126 4.072 9.417c-8.653 17.052-21.887 29.523-41.739 39.958c-13.489 7.126-27.487 9.671-41.485 7.89c-11.453-1.527-20.36-6.618-25.96-15.016c-8.144-12.471-8.907-25.96-2.036-39.449c4.836-9.672 12.471-16.798 17.307-20.361c-1.018-3.308-2.545-8.908-3.309-12.98c-36.903 26.724-33.086 62.864-21.888 79.916c8.4 12.725 25.451 20.615 44.285 20.615c5.09 0 10.18-.509 15.27-1.782c32.578-6.362 57.265-25.705 71.263-54.464Z" />
                <path fill="#fff"
                    d="M211.372 134.04c-19.342-22.652-47.847-35.122-80.424-35.122h-4.072c-2.291-4.582-7.127-7.636-12.471-7.636h-.509c-7.89.255-13.998 6.872-13.744 14.762c.255 7.635 6.617 13.743 14.253 13.743h.509c5.599-.254 10.435-3.817 12.471-8.653h4.581c19.342 0 37.667 5.599 54.21 16.543c12.725 8.399 21.888 19.343 26.978 32.577c4.327 10.689 4.072 21.124-.509 30.032c-7.126 13.489-19.088 20.87-34.868 20.87c-10.18 0-19.851-3.054-24.942-5.345c-2.799 2.545-7.889 6.617-11.452 9.162c10.943 5.09 22.142 7.89 32.831 7.89c24.433 0 42.503-13.489 49.375-26.978c7.381-14.761 6.872-40.212-12.217-61.845Z" />
                <path fill="#fff"
                    d="M82.082 169.926c.255 7.635 6.617 13.743 14.253 13.743h.509c7.889-.255 13.998-6.872 13.743-14.762c-.254-7.635-6.617-13.743-14.252-13.743h-.51c-.508 0-1.272 0-1.78.255c-10.436-17.307-14.762-36.141-13.235-56.501c1.018-15.27 6.108-28.505 15.016-39.45c7.38-9.416 21.633-13.997 31.304-14.252c26.978-.509 38.431 33.086 39.194 46.575c3.309.764 8.908 2.546 12.726 3.818C175.996 54.38 150.545 33 126.112 33c-22.906 0-44.03 16.543-52.429 40.976c-11.707 32.577-4.072 63.881 10.18 88.569c-1.272 1.781-2.035 4.581-1.78 7.381Z" />
            </g>
        </symbol>

        <symbol viewBox="0 0 256 230" id="reactquery-icon">
            <path fill="#00435B"
                d="m157.98 142.487l-4.91 8.527a8.288 8.288 0 0 1-7.182 4.151H108.27a8.288 8.288 0 0 1-7.182-4.151l-4.911-8.527h61.802Zm13.747-23.87l-8.658 15.034h-71.98l-8.658-15.034h89.296Zm-8.34-23.342l8.354 14.506H82.417l8.354-14.506h72.616Zm-17.5-22.066a8.288 8.288 0 0 1 7.183 4.151l5.228 9.079H95.86l5.229-9.079a8.288 8.288 0 0 1 7.182-4.151h37.617Z" />
            <path fill="#002B3B"
                d="M53.523 69.252c-4.167-20.206-5.062-35.704-2.368-46.957c1.602-6.693 4.53-12.153 8.984-16.093c4.702-4.159 10.646-6.2 17.326-6.2c11.018 0 22.602 5.025 34.98 14.57c5.05 3.894 10.29 8.587 15.732 14.082c.434-.557.923-1.083 1.469-1.57c15.386-13.71 28.34-22.23 39.42-25.514c6.588-1.954 12.773-2.14 18.405-.244c5.946 2 10.683 6.137 14.026 11.93c5.516 9.561 6.97 22.124 4.914 37.637c-.838 6.323-2.271 13.21-4.296 20.673c.764.092 1.53.262 2.288.513c19.521 6.47 33.345 13.426 41.714 21.377c4.98 4.73 8.231 9.996 9.407 15.826c1.24 6.153.03 12.324-3.308 18.113c-5.506 9.548-15.63 17.077-30.052 23.041c-5.79 2.395-12.343 4.564-19.664 6.515c.334.754.594 1.555.767 2.395c4.167 20.206 5.061 35.704 2.368 46.957c-1.602 6.693-4.531 12.153-8.985 16.093c-4.701 4.159-10.646 6.2-17.325 6.2c-11.019 0-22.602-5.025-34.98-14.57c-5.104-3.936-10.402-8.687-15.907-14.258a11.737 11.737 0 0 1-2.084 2.442c-15.386 13.712-28.34 22.23-39.42 25.515c-6.588 1.954-12.773 2.14-18.405.244c-5.946-2-10.683-6.137-14.026-11.93c-5.516-9.561-6.97-22.124-4.914-37.637c.869-6.551 2.376-13.709 4.518-21.485a11.732 11.732 0 0 1-2.51-.537c-19.521-6.47-33.345-13.426-41.714-21.377c-4.98-4.73-8.231-9.996-9.407-15.826c-1.24-6.153-.03-12.325 3.308-18.114c5.506-9.547 15.63-17.077 30.052-23.04c5.963-2.467 12.734-4.693 20.32-6.689a11.81 11.81 0 0 1-.633-2.082Z" />
            <path fill="#FF4154"
                d="M189.647 161.333a3.684 3.684 0 0 1 4.235 2.81l.023.112l.207 1.075c6.71 35.276 1.983 52.915-14.18 52.915c-15.813 0-35.944-15.051-60.392-45.153a3.684 3.684 0 0 1 2.777-6.005h.114l1.288.009c10.288.056 20.289-.303 30.004-1.076c11.467-.913 23.442-2.475 35.924-4.687ZM78.646 134.667l.062.105l.646 1.127c5.177 9 10.57 17.542 16.18 25.627c6.608 9.52 14.038 19.158 22.29 28.914a3.684 3.684 0 0 1-.309 5.082l-.093.083l-.83.715c-27.307 23.397-45.055 28.068-53.244 14.012c-8.017-13.757-5.11-38.773 8.719-75.047a3.683 3.683 0 0 1 6.579-.618Zm124.857-52.054l.112.037l1.028.354c33.705 11.725 46.51 24.61 38.416 38.655c-7.916 13.736-30.93 23.738-69.041 30.004a3.683 3.683 0 0 1-3.773-5.501c5.458-9.286 10.375-18.524 14.749-27.717c4.96-10.425 9.615-21.616 13.965-33.57a3.684 3.684 0 0 1 4.432-2.295l.112.033ZM84.446 76.71a3.683 3.683 0 0 1 1.31 5.042c-5.46 9.285-10.376 18.524-14.75 27.717c-4.96 10.425-9.615 21.615-13.965 33.57a3.684 3.684 0 0 1-4.544 2.262l-.112-.037l-1.028-.355c-33.705-11.724-46.51-24.61-38.416-38.654c7.916-13.737 30.93-23.738 69.041-30.004c.85-.14 1.722.022 2.464.459Zm108.206-57.748c8.017 13.758 5.11 38.774-8.719 75.048a3.683 3.683 0 0 1-6.579.618l-.062-.105l-.646-1.127c-5.177-9-10.57-17.542-16.18-25.627c-6.608-9.52-14.038-19.158-22.29-28.914a3.684 3.684 0 0 1 .309-5.082l.093-.083l.83-.715c27.307-23.397 45.055-28.068 53.244-14.013ZM77.45 10.59c15.814 0 35.945 15.05 60.392 45.152a3.684 3.684 0 0 1-2.777 6.005h-.114l-1.288-.008c-10.287-.056-20.289.303-30.003 1.076c-11.468.913-23.443 2.475-35.925 4.687a3.684 3.684 0 0 1-4.234-2.81l-.024-.113l-.207-1.074C56.56 28.228 61.286 10.59 77.45 10.59Z" />
            <path fill="#FFD94C"
                d="M111.295 73.67h31.576a12.89 12.89 0 0 1 11.181 6.475l15.855 27.626a12.892 12.892 0 0 1 0 12.834l-15.855 27.626a12.892 12.892 0 0 1-11.181 6.475h-31.576c-4.618 0-8.883-2.47-11.182-6.475L84.26 120.605a12.892 12.892 0 0 1 0-12.834l15.854-27.626a12.892 12.892 0 0 1 11.182-6.475Zm26.763 8.338c4.62 0 8.888 2.473 11.185 6.481l11.056 19.288a12.892 12.892 0 0 1 0 12.822l-11.056 19.288a12.892 12.892 0 0 1-11.185 6.48h-21.95c-4.62 0-8.888-2.472-11.185-6.48l-11.056-19.288a12.892 12.892 0 0 1 0-12.822l11.056-19.288a12.892 12.892 0 0 1 11.184-6.48h21.951Zm-5.187 9.12h-11.576a12.892 12.892 0 0 0-11.179 6.47l-5.842 10.167a12.892 12.892 0 0 0 0 12.846l5.842 10.168a12.892 12.892 0 0 0 11.179 6.47h11.576c4.616 0 8.88-2.468 11.179-6.47l5.842-10.168a12.892 12.892 0 0 0 0-12.846l-5.842-10.168a12.892 12.892 0 0 0-11.179-6.47Zm-4.994 8.729c4.612 0 8.873 2.464 11.173 6.46l.829 1.44a12.892 12.892 0 0 1 0 12.862l-.829 1.44a12.892 12.892 0 0 1-11.173 6.46h-1.588a12.892 12.892 0 0 1-11.173-6.46l-.829-1.44a12.892 12.892 0 0 1 0-12.862l.829-1.44a12.892 12.892 0 0 1 11.173-6.46h1.588Zm-.792 8.599a5.738 5.738 0 0 0-4.97 2.866a5.729 5.729 0 0 0 0 5.732a5.738 5.738 0 0 0 9.937 0a5.729 5.729 0 0 0 0-5.732a5.736 5.736 0 0 0-4.967-2.866Zm-46.509 5.732h10.32" />
        </symbol>

        <symbol viewBox="0 0 128 128" id="angular-icon">
            <path fill="#DD0031" d="m64 15.36l-47.668 17l7.27 63.027L64 117.762l40.398-22.375l7.27-63.028Zm0 0" />
            <path fill="#C3002F" d="M64 15.36v11.367v-.051v91.086l40.398-22.375l7.27-63.028Zm0 0" />
            <path fill="#FFF"
                d="M64 26.676L34.203 93.492h11.11L51.3 78.54h25.293l5.992 14.953h11.11Zm8.703 42.648H55.297L64 48.383Zm0 0" />
        </symbol>

        <symbol viewBox="0 0 128 128" id="tailwind-icon">
            <path fill="#38bdf8"
                d="M64.004 25.602c-17.067 0-27.73 8.53-32 25.597c6.398-8.531 13.867-11.73 22.398-9.597c4.871 1.214 8.352 4.746 12.207 8.66C72.883 56.629 80.145 64 96.004 64c17.066 0 27.73-8.531 32-25.602c-6.399 8.536-13.867 11.735-22.399 9.602c-4.87-1.215-8.347-4.746-12.207-8.66c-6.27-6.367-13.53-13.738-29.394-13.738zM32.004 64c-17.066 0-27.73 8.531-32 25.602C6.402 81.066 13.87 77.867 22.402 80c4.871 1.215 8.352 4.746 12.207 8.66c6.274 6.367 13.536 13.738 29.395 13.738c17.066 0 27.73-8.53 32-25.597c-6.399 8.531-13.867 11.73-22.399 9.597c-4.87-1.214-8.347-4.746-12.207-8.66C55.128 71.371 47.868 64 32.004 64zm0 0" />
        </symbol>

        <symbol viewBox="0 0 256 256" id="sass-icon">
            <g fill="none">
                <rect width="256" height="256" fill="#CD6799" rx="60" />
                <g clip-path="url(#skillIconsSass0)">
                    <path fill="#fff"
                        d="M200.107 139.163c-6.974.036-13.034 1.716-18.109 4.198c-1.862-3.687-3.724-6.973-4.053-9.383c-.365-2.811-.803-4.527-.365-7.886c.438-3.359 2.41-8.141 2.373-8.506c-.036-.366-.438-2.081-4.454-2.118c-4.016-.036-7.484.767-7.886 1.826c-.402 1.058-1.168 3.468-1.679 5.951c-.694 3.651-8.033 16.685-12.231 23.512c-1.351-2.665-2.519-5.002-2.775-6.864c-.365-2.811-.803-4.527-.365-7.886c.438-3.359 2.41-8.142 2.373-8.507c-.036-.365-.438-2.081-4.454-2.117c-4.016-.037-7.485.766-7.886 1.825c-.402 1.059-.84 3.542-1.68 5.951c-.839 2.41-10.587 24.17-13.143 29.792a168.207 168.207 0 0 1-3.249 6.754s-.037.11-.146.292a91 91 0 0 1-1.096 2.081v.037c-.547.986-1.132 1.898-1.424 1.898c-.219 0-.62-2.628.073-6.206c1.461-7.558 4.929-19.314 4.893-19.715c0-.219.657-2.264-2.264-3.323c-2.848-1.059-3.87.694-4.126.694c-.255 0-.438.621-.438.621s3.177-13.217-6.06-13.217c-5.769 0-13.728 6.316-17.67 12.012a5003.282 5003.282 0 0 0-13.437 7.338c-2.153 1.205-4.38 2.41-6.462 3.542c-.146-.146-.292-.329-.438-.475c-11.172-11.939-31.836-20.372-30.96-36.4c.329-5.842 2.337-21.176 39.686-39.796c30.741-15.151 55.203-10.953 59.438-1.643c6.06 13.29-13.107 37.97-44.87 41.548c-12.122 1.351-18.474-3.322-20.08-5.074c-1.68-1.826-1.936-1.935-2.557-1.57c-1.022.547-.365 2.19 0 3.139c.95 2.483 4.856 6.864 11.464 9.018c5.842 1.899 20.044 2.958 37.24-3.687c19.241-7.448 34.283-28.15 29.865-45.491c-4.417-17.598-33.625-23.403-61.263-13.582c-16.43 5.842-34.246 15.042-47.061 27.017c-15.225 14.24-17.634 26.616-16.648 31.8c3.541 18.401 28.915 30.376 39.065 39.248c-.511.292-.986.548-1.387.767c-5.075 2.519-24.425 12.632-29.245 23.33c-5.476 12.121.877 20.81 5.075 21.978c13.034 3.615 26.433-2.884 33.626-13.618c7.192-10.734 6.316-24.68 2.993-31.069a.762.762 0 0 0-.146-.219c1.315-.767 2.665-1.57 3.98-2.337a195.705 195.705 0 0 1 7.338-4.126c-1.241 3.396-2.154 7.448-2.592 13.29c-.547 6.864 2.264 15.772 5.951 19.277c1.643 1.533 3.578 1.57 4.82 1.57c4.308 0 6.243-3.578 8.397-7.813c2.628-5.185 5.002-11.209 5.002-11.209s-2.958 16.284 5.074 16.284c2.921 0 5.878-3.797 7.193-5.732v.036s.073-.109.219-.365c.292-.475.474-.767.474-.767v-.073c1.169-2.044 3.797-6.681 7.704-14.385c5.038-9.93 9.894-22.343 9.894-22.343s.438 3.03 1.935 8.068c.876 2.958 2.702 6.207 4.162 9.347c-1.168 1.643-1.898 2.555-1.898 2.555l.036.037c-.949 1.241-1.971 2.592-3.103 3.906c-3.98 4.747-8.726 10.187-9.383 11.757c-.767 1.862-.584 3.212.876 4.308c1.059.803 2.957.912 4.892.803c3.578-.256 6.098-1.132 7.339-1.68c1.935-.693 4.199-1.752 6.316-3.322c3.907-2.884 6.28-7.01 6.061-12.45c-.11-2.994-1.096-5.987-2.3-8.799c.365-.511.693-1.022 1.058-1.533c6.171-9.018 10.953-18.912 10.953-18.912s.438 3.03 1.935 8.069c.73 2.555 2.227 5.33 3.542 8.032c-5.805 4.71-9.383 10.186-10.661 13.764c-2.3 6.645-.511 9.638 2.884 10.332c1.534.329 3.724-.401 5.331-1.095c2.044-.657 4.454-1.789 6.754-3.469c3.906-2.884 7.667-6.9 7.448-12.34c-.11-2.482-.767-4.929-1.68-7.302c4.929-2.044 11.282-3.176 19.387-2.227c17.379 2.045 20.811 12.888 20.153 17.452c-.657 4.563-4.308 7.046-5.513 7.813c-1.204.767-1.606 1.022-1.496 1.57c.146.803.73.766 1.752.62c1.424-.255 9.127-3.687 9.456-12.084c.548-10.734-9.675-22.454-27.747-22.344ZM66.043 184.362c-5.768 6.279-13.8 8.653-17.269 6.645c-3.724-2.155-2.264-11.428 4.82-18.073c4.307-4.052 9.857-7.813 13.544-10.113c.84-.511 2.081-1.241 3.578-2.154c.256-.146.402-.219.402-.219l.876-.548c2.592 9.493.11 17.854-5.95 24.462Zm41.986-28.551c-2.008 4.893-6.206 17.415-8.762 16.722c-2.19-.585-3.541-10.077-.438-19.46c1.57-4.71 4.892-10.332 6.827-12.523c3.14-3.505 6.608-4.673 7.448-3.249c1.059 1.862-3.833 15.443-5.075 18.51Zm34.648 16.576c-.84.438-1.643.73-2.008.511c-.256-.146.365-.73.365-.73s4.345-4.674 6.061-6.791c.985-1.242 2.154-2.702 3.395-4.345v.475c0 5.586-5.403 9.346-7.813 10.88Zm26.725-6.098c-.621-.438-.511-1.898 1.57-6.462c.803-1.789 2.702-4.782 5.951-7.667c.365 1.169.621 2.3.584 3.359c-.036 7.047-5.075 9.675-8.105 10.77Z" />
                </g>
                <defs>
                    <clipPath id="skillIconsSass0">
                        <path fill="#fff" d="M28 53h200v149.909H28z" />
                    </clipPath>
                </defs>
            </g>
        </symbol>

        <symbol viewBox="0 0 128 128" id="postgresql-icon">
            <path
                d="M85.988 76.075c.632-5.262.443-6.034 4.362-5.182l.995.088c3.014.137 6.957-.485 9.272-1.561c4.986-2.313 7.942-6.177 3.026-5.162c-11.215 2.313-11.986-1.483-11.986-1.483C103.5 45.204 108.451 22.9 104.178 17.44C92.524 2.548 72.35 9.59 72.012 9.773l-.108.021c-2.216-.461-4.695-.735-7.481-.78c-5.075-.083-8.926 1.331-11.847 3.546c0 0-35.989-14.827-34.315 18.646c.356 7.121 10.207 53.882 21.956 39.758c4.294-5.164 8.444-9.531 8.444-9.531c2.061 1.369 4.528 2.067 7.116 1.816l.2-.17c-.062.641-.035 1.268.081 2.01c-3.027 3.383-2.137 3.977-8.189 5.222c-6.122 1.262-2.525 3.508-.178 4.095c2.848.713 9.433 1.722 13.884-4.509l-.177.711c1.188.95 1.107 6.827 1.275 11.026c.168 4.199.45 8.117 1.306 10.429c.856 2.31 1.866 8.261 9.819 6.557c6.646-1.426 11.727-3.476 12.19-22.545" />
            <path
                d="M71.208 102.77c-3.518 0-5.808-1.36-7.2-2.674c-2.1-1.981-2.933-4.534-3.43-6.059l-.215-.637c-1.002-2.705-1.341-6.599-1.542-11.613a199.25 199.25 0 0 1-.075-2.352c-.017-.601-.038-1.355-.068-2.146a15.157 15.157 0 0 1-3.997 1.264c-2.48.424-5.146.286-7.926-.409c-1.961-.49-3.999-1.506-5.16-3.076c-3.385 2.965-6.614 2.562-8.373 1.976c-3.103-1.035-5.88-3.942-8.491-8.89c-1.859-3.523-3.658-8.115-5.347-13.646c-2.94-9.633-4.808-19.779-4.974-23.109c-.522-10.427 2.284-17.883 8.34-22.16c9.555-6.749 24.03-2.781 29.307-.979c3.545-2.137 7.716-3.178 12.43-3.102c2.532.041 4.942.264 7.181.662c2.335-.734 6.949-1.788 12.23-1.723c9.73.116 17.793 3.908 23.316 10.966c3.941 5.036 1.993 15.61.48 21.466c-2.127 8.235-5.856 16.996-10.436 24.622c1.244.009 3.045-.141 5.607-.669c5.054-1.044 6.531 1.666 6.932 2.879c1.607 4.867-5.378 8.544-7.557 9.555c-2.792 1.297-7.343 2.086-11.071 1.915l-.163-.011l-.979-.086l-.097.816l-.093.799c-.25 9.664-1.631 15.784-4.472 19.829c-2.977 4.239-7.116 5.428-10.761 6.209a16.146 16.146 0 0 1-3.396.383zm-7.402-35.174c2.271 1.817 2.47 5.236 2.647 11.626c.022.797.043 1.552.071 2.257c.086 2.134.287 7.132 1.069 9.244c.111.298.21.602.314.922c.872 2.672 1.31 4.011 5.081 3.203c3.167-.678 4.794-1.287 6.068-3.101c1.852-2.638 2.888-7.941 3.078-15.767l3.852.094l-3.826-.459l.112-.955c.367-3.148.631-5.424 2.736-6.928c1.688-1.207 3.613-1.09 5.146-.814c-1.684-1.271-2.15-2.765-2.274-3.377l-.321-1.582l.902-1.34c5.2-7.716 9.489-17.199 11.767-26.018c2.34-9.062 1.626-13.875.913-14.785c-9.446-12.071-25.829-7.088-27.539-6.521l-.29.156l-1.45.271l-.743-.154c-2.047-.425-4.321-.66-6.76-.7c-3.831-.064-6.921.841-9.455 2.764l-1.758 1.333l-2.041-.841c-4.358-1.782-17.162-5.365-23.918-.58c-3.75 2.656-5.458 7.861-5.078 15.47c.125 2.512 1.833 12.021 4.647 21.245c3.891 12.746 7.427 16.979 8.903 17.472c.257.087.926-.433 1.591-1.231c4.326-5.203 8.44-9.54 8.613-9.723l2.231-2.347l2.697 1.792c1.087.723 2.286 1.132 3.518 1.209l6.433-5.486l-.932 9.51c-.021.214-.031.504.053 1.044l.28 1.803l-1.213 1.358l-.14.157l3.534 1.632l1.482-1.853z" />
            <path fill="#336791"
                d="M103.646 64.258c-11.216 2.313-11.987-1.484-11.987-1.484c11.842-17.571 16.792-39.876 12.52-45.335C92.524 2.547 72.35 9.59 72.013 9.773l-.109.019c-2.216-.459-4.695-.733-7.482-.778c-5.075-.083-8.925 1.33-11.846 3.545c0 0-35.99-14.826-34.316 18.647c.356 7.121 10.207 53.882 21.956 39.758c4.294-5.164 8.443-9.531 8.443-9.531c2.061 1.369 4.528 2.067 7.115 1.816l.201-.17c-.062.641-.034 1.268.08 2.01c-3.026 3.383-2.138 3.977-8.188 5.222c-6.123 1.262-2.526 3.508-.177 4.095c2.847.713 9.433 1.722 13.883-4.509l-.178.711c1.186.95 2.019 6.179 1.879 10.919s-.233 7.994.702 10.536c.935 2.541 1.866 8.261 9.82 6.557c6.646-1.425 10.09-5.116 10.57-11.272c.34-4.377 1.109-3.73 1.158-7.644l.618-1.853c.711-5.934.113-7.848 4.208-6.957l.995.087c3.014.138 6.958-.485 9.273-1.561c4.986-2.314 7.943-6.177 3.028-5.162z" />
            <path fill="#fff"
                d="M71.61 100.394c-6.631.001-8.731-5.25-9.591-7.397c-1.257-3.146-1.529-15.358-1.249-25.373a1.286 1.286 0 0 1 2.57.072c-.323 11.551.136 22.018 1.066 24.346c1.453 3.632 3.656 6.809 9.887 5.475c5.915-1.269 8.13-3.512 9.116-9.23c.758-4.389 2.254-16.874 2.438-19.338a1.285 1.285 0 0 1 2.563.191c-.192 2.564-1.682 15.026-2.469 19.584c-1.165 6.755-4.176 9.819-11.11 11.306a15.462 15.462 0 0 1-3.221.364zM35.659 74.749a5.343 5.343 0 0 1-1.704-.281c-4.307-1.437-8.409-8.451-12.193-20.849c-2.88-9.438-4.705-19.288-4.865-22.489c-.475-9.49 1.97-16.205 7.265-19.957c10.476-7.423 28.1-.354 28.845-.05a1.285 1.285 0 0 1-.972 2.379v.001c-.17-.07-17.07-6.84-26.392-.229c-4.528 3.211-6.607 9.175-6.18 17.729c.135 2.696 1.84 12.311 4.757 21.867c3.378 11.067 7.223 18.052 10.548 19.16c.521.175 2.109.704 4.381-2.026c4.272-5.14 8.197-9.242 8.236-9.283a1.286 1.286 0 0 1 1.856 1.778c-.039.04-3.904 4.081-8.116 9.148c-1.995 2.398-3.908 3.102-5.466 3.102zm55.92-10.829a1.284 1.284 0 0 1-1.065-2.004c11.971-17.764 16.173-39.227 12.574-43.825c-4.53-5.788-10.927-8.812-19.012-8.985c-5.987-.13-10.746 1.399-11.523 1.666l-.195.079c-.782.246-1.382-.183-1.608-.684a1.29 1.29 0 0 1 .508-1.631l.346-.142l-.017.005l.018-.006c1.321-.483 6.152-1.933 12.137-1.864c8.947.094 16.337 3.545 21.371 9.977c2.382 3.044 2.387 10.057.015 19.24c-2.418 9.362-6.968 19.425-12.482 27.607a1.282 1.282 0 0 1-1.067.567zm.611 8.223c-2.044 0-3.876-.287-4.973-.945c-1.128-.675-1.343-1.594-1.371-2.081c-.308-5.404 2.674-6.345 4.195-6.774c-.212-.32-.514-.697-.825-1.086c-.887-1.108-2.101-2.626-3.037-4.896c-.146-.354-.606-1.179-1.138-2.133c-2.883-5.169-8.881-15.926-5.028-21.435c1.784-2.549 5.334-3.552 10.566-2.992c-1.539-4.689-8.869-19.358-26.259-19.643c-5.231-.088-9.521 1.521-12.744 4.775c-7.217 7.289-6.955 20.477-6.952 20.608a1.284 1.284 0 1 1-2.569.067c-.016-.585-.286-14.424 7.695-22.484c3.735-3.772 8.651-5.634 14.612-5.537C75.49 7.77 82.651 13.426 86.7 18.14c4.412 5.136 6.576 10.802 6.754 12.692c.133 1.406-.876 1.688-1.08 1.729l-.463.011c-5.135-.822-8.429-.252-9.791 1.695c-2.931 4.188 2.743 14.363 5.166 18.709c.619 1.108 1.065 1.909 1.269 2.404c.796 1.93 1.834 3.227 2.668 4.269c.733.917 1.369 1.711 1.597 2.645c.105.185 1.603 2.399 10.488.565c2.227-.459 3.562-.066 3.97 1.168c.803 2.429-3.702 5.261-6.196 6.42c-2.238 1.039-5.805 1.696-8.892 1.696zm-3.781-3.238c.281.285 1.691.775 4.612.65c2.596-.112 5.335-.677 6.979-1.439c2.102-.976 3.504-2.067 4.231-2.812l-.404.074c-5.681 1.173-9.699 1.017-11.942-.465a4.821 4.821 0 0 1-.435-.323c-.243.096-.468.159-.628.204c-1.273.357-2.589.726-2.413 4.111zm-36.697 7.179c-1.411 0-2.896-.191-4.413-.572c-1.571-.393-4.221-1.576-4.18-3.519c.045-2.181 3.216-2.835 4.411-3.081c4.312-.888 4.593-1.244 5.941-2.955c.393-.499.882-1.12 1.548-1.865c.99-1.107 2.072-1.669 3.216-1.669c.796 0 1.45.271 1.881.449c1.376.57 2.524 1.948 2.996 3.598c.426 1.488.223 2.92-.572 4.032c-2.608 3.653-6.352 5.582-10.828 5.582zm-5.817-3.98c.388.299 1.164.699 2.027.916c1.314.328 2.588.495 3.79.495c3.662 0 6.601-1.517 8.737-4.506c.445-.624.312-1.415.193-1.832c-.25-.872-.87-1.665-1.509-1.931c-.347-.144-.634-.254-.898-.254c-.142 0-.573 0-1.3.813c-.614.686-1.055 1.246-1.446 1.741c-1.678 2.131-2.447 2.854-7.441 3.883c-1.218.252-1.843.506-2.153.675zm9.882-5.928a1.286 1.286 0 0 1-1.269-1.09a6.026 6.026 0 0 1-.064-.644c-3.274-.062-6.432-1.466-8.829-3.968c-3.031-3.163-4.411-7.545-3.785-12.022c.68-4.862.426-9.154.289-11.46a25.514 25.514 0 0 1-.063-1.425c.002-.406.01-1.485 3.615-3.312c1.282-.65 3.853-1.784 6.661-2.075c4.654-.48 7.721 1.592 8.639 5.836c2.478 11.46.196 16.529-1.47 20.23c-.311.688-.604 1.34-.838 1.97l-.207.557c-.88 2.36-1.641 4.399-1.407 5.923a1.287 1.287 0 0 1-1.075 1.466l-.197.014zM44.634 35.922l.051.918c.142 2.395.406 6.853-.31 11.969c-.516 3.692.612 7.297 3.095 9.888c1.962 2.048 4.546 3.178 7.201 3.178h.055c.298-1.253.791-2.575 1.322-4l.206-.553c.265-.712.575-1.401.903-2.13c1.604-3.564 3.6-8 1.301-18.633c-.456-2.105-1.56-3.324-3.375-3.726c-3.728-.824-9.283 1.98-10.449 3.089zm7.756-.545c-.064.454.833 1.667 2.001 1.829c1.167.163 2.166-.785 2.229-1.239c.063-.455-.833-.955-2.002-1.118c-1.167-.163-2.166.073-2.228.528zm2.27 2.277l-.328-.023c-.725-.101-1.458-.558-1.959-1.223c-.176-.233-.464-.687-.407-1.091c.082-.593.804-.947 1.933-.947c.253 0 .515.019.78.055c.616.086 1.189.264 1.612.5c.733.41.787.866.754 1.103c-.091.653-1.133 1.626-2.385 1.626zm-1.844-2.201c.037.28.73 1.205 1.634 1.33l.209.015c.834 0 1.458-.657 1.531-.872c-.077-.146-.613-.511-1.631-.651a4.72 4.72 0 0 0-.661-.048c-.652-.001-1.001.146-1.082.226zm35.121-1.003c.063.455-.832 1.668-2.001 1.83c-1.168.162-2.167-.785-2.231-1.24c-.062-.454.834-.955 2.002-1.117c1.168-.164 2.166.074 2.23.527zm-2.27 2.062c-1.125 0-2.094-.875-2.174-1.442c-.092-.681 1.029-1.199 2.185-1.359c.254-.036.506-.054.749-.054c.997 0 1.657.293 1.723.764c.043.306-.191.777-.595 1.201c-.266.28-.826.765-1.588.87l-.3.02zm.759-2.427c-.223 0-.455.017-.69.049c-1.162.161-1.853.628-1.82.878c.039.274.78 1.072 1.75 1.072l.239-.017c.634-.089 1.11-.502 1.337-.741c.356-.375.498-.727.481-.848c-.021-.157-.449-.393-1.297-.393zm3.194 26.453a1.285 1.285 0 0 1-1.067-2c2.736-4.087 2.235-8.256 1.751-12.286c-.207-1.718-.42-3.493-.364-5.198c.056-1.753.278-3.199.494-4.599c.255-1.657.496-3.224.396-5.082a1.286 1.286 0 0 1 2.567-.138c.114 2.124-.159 3.896-.423 5.611c-.204 1.323-.415 2.691-.466 4.29c-.049 1.509.144 3.112.348 4.808c.516 4.287 1.099 9.146-2.167 14.023c-.248.37-.655.571-1.069.571z" />
            <path
                d="M2.835 103.184a26.23 26.23 0 0 1 4.343-.338c2.235 0 3.874.52 4.914 1.456c.962.832 1.534 2.106 1.534 3.667c0 1.586-.469 2.834-1.353 3.744c-1.196 1.274-3.146 1.924-5.356 1.924c-.676 0-1.3-.026-1.819-.156v7.021H2.835v-17.318zm2.263 8.45c.494.13 1.118.182 1.872.182c2.729 0 4.394-1.326 4.394-3.744c0-2.314-1.638-3.432-4.134-3.432c-.988 0-1.742.078-2.132.182v6.812zm22.23 2.47c0 4.654-3.225 6.683-6.267 6.683c-3.406 0-6.032-2.496-6.032-6.475c0-4.212 2.756-6.682 6.24-6.682c3.615-.001 6.059 2.626 6.059 6.474zm-9.984.13c0 2.756 1.586 4.836 3.822 4.836c2.184 0 3.821-2.054 3.821-4.888c0-2.132-1.065-4.836-3.77-4.836s-3.873 2.496-3.873 4.888zm12.557 3.926c.676.442 1.872.91 3.016.91c1.664 0 2.444-.832 2.444-1.872c0-1.092-.649-1.69-2.34-2.314c-2.262-.806-3.328-2.054-3.328-3.562c0-2.028 1.638-3.692 4.342-3.692c1.274 0 2.393.364 3.095.78l-.572 1.664a4.897 4.897 0 0 0-2.574-.728c-1.352 0-2.106.78-2.106 1.716c0 1.04.755 1.508 2.393 2.132c2.184.832 3.302 1.924 3.302 3.796c0 2.21-1.716 3.77-4.706 3.77c-1.378 0-2.652-.338-3.536-.858l.57-1.742zm13.365-13.859v3.614h3.275v1.742h-3.275v6.786c0 1.56.441 2.444 1.716 2.444a5.09 5.09 0 0 0 1.326-.156l.104 1.716c-.441.182-1.144.312-2.027.312c-1.066 0-1.925-.338-2.471-.962c-.649-.676-.884-1.794-.884-3.276v-6.864h-1.95v-1.742h1.95v-3.016l2.236-.598zm16.536 3.615c-.053.91-.104 1.924-.104 3.458v7.306c0 2.886-.572 4.654-1.794 5.747c-1.222 1.144-2.99 1.508-4.576 1.508c-1.508 0-3.172-.364-4.187-1.04l.572-1.742c.832.52 2.132.988 3.692.988c2.34 0 4.056-1.222 4.056-4.394v-1.404h-.052c-.702 1.17-2.054 2.106-4.004 2.106c-3.12 0-5.356-2.652-5.356-6.137c0-4.264 2.782-6.682 5.668-6.682c2.185 0 3.381 1.144 3.927 2.184h.052l.104-1.898h2.002zm-2.366 4.966c0-.39-.026-.728-.13-1.04c-.416-1.326-1.534-2.418-3.198-2.418c-2.185 0-3.744 1.846-3.744 4.758c0 2.47 1.248 4.524 3.718 4.524c1.404 0 2.678-.884 3.172-2.34c.13-.39.183-.832.183-1.222v-2.262zm5.901-1.04c0-1.482-.026-2.756-.104-3.926h2.003l.077 2.47h.104c.572-1.69 1.95-2.756 3.484-2.756c.26 0 .441.026.649.078v2.158a3.428 3.428 0 0 0-.779-.078c-1.612 0-2.757 1.222-3.068 2.938a6.44 6.44 0 0 0-.104 1.066v6.708h-2.262v-8.658zm9.517 2.782c.052 3.094 2.027 4.368 4.315 4.368c1.639 0 2.626-.286 3.484-.65l.39 1.638c-.806.364-2.184.78-4.186.78c-3.874 0-6.188-2.548-6.188-6.344c0-3.796 2.236-6.787 5.902-6.787c4.108 0 5.2 3.614 5.2 5.928c0 .468-.052.832-.078 1.066h-8.839zm6.708-1.638c.025-1.456-.599-3.718-3.172-3.718c-2.314 0-3.328 2.132-3.511 3.718h6.683z" />
            <path fill="#336791"
                d="M84.371 117.744a8.016 8.016 0 0 0 4.056 1.144c2.314 0 3.666-1.222 3.666-2.99c0-1.638-.936-2.574-3.302-3.484c-2.86-1.014-4.628-2.496-4.628-4.966c0-2.73 2.262-4.758 5.668-4.758c1.794 0 3.094.416 3.874.858l-.624 1.846a6.98 6.98 0 0 0-3.328-.832c-2.392 0-3.302 1.43-3.302 2.626c0 1.638 1.065 2.444 3.484 3.38c2.964 1.145 4.472 2.574 4.472 5.148c0 2.704-2.002 5.044-6.136 5.044c-1.69 0-3.536-.494-4.473-1.118l.573-1.898zm27.586 5.33a94.846 94.846 0 0 1-6.708-2.028c-.364-.13-.728-.26-1.066-.26c-4.16-.156-7.722-3.224-7.722-8.866c0-5.616 3.432-9.23 8.164-9.23c4.758 0 7.853 3.692 7.853 8.866c0 4.498-2.08 7.384-4.992 8.398v.104c1.742.442 3.64.858 5.122 1.118l-.651 1.898zm-1.872-11.414c0-3.51-1.819-7.125-5.538-7.125c-3.822 0-5.694 3.536-5.668 7.333c-.026 3.718 2.028 7.072 5.564 7.072c3.615 0 5.642-3.276 5.642-7.28zm5.329-8.684h2.263v15.626h7.488v1.898h-9.751v-17.524z" />
        </symbol>

        <symbol viewBox="0 0 128 128" id="webpack-icon">
            <path fill="#8ed6fb"
                d="M117.29 98.1L66.24 127v-22.51L98 87l19.29 11.1zm3.5-3.16V34.55l-18.68 10.8v38.81l18.67 10.77zM10.71 98.1l51 28.88v-22.49L29.94 87zm-3.5-3.16V34.55l18.68 10.8v38.81zm2.19-64.3L61.76 1v21.76L28.21 41.21l-.27.15zm109.18 0L66.24 1v21.76L99.79 41.2l.27.15l18.54-10.71z" />
            <path fill="#1c78c0"
                d="M61.76 99.37L30.37 82.1V47.92L61.76 66zm4.48 0l31.39-17.25v-34.2L66.24 66zM32.5 44L64 26.66L95.5 44L64 62.16L32.5 44z" />
        </symbol>

        <symbol viewBox="0 0 256 256" id="git-icon">
            <g fill="none">
                <rect width="256" height="256" fill="#F03C2E" rx="60" />
                <g clip-path="url(#skillIconsGit0)">
                    <path fill="#fff"
                        d="m224.225 119.094l-87.319-87.319a12.869 12.869 0 0 0-14.035-2.793a12.869 12.869 0 0 0-4.177 2.793L100.569 49.9l23 23c5.35-1.875 11.475-.594 15.737 3.669a15.313 15.313 0 0 1 3.631 15.831l22.169 22.169c5.363-1.85 11.55-.657 15.831 3.637a15.322 15.322 0 0 1 3.321 16.706a15.333 15.333 0 0 1-20.029 8.293c-1.86-.771-3.55-1.9-4.973-3.324c-4.5-4.5-5.612-11.125-3.337-16.669l-20.675-20.675v54.407a15.605 15.605 0 0 1 4.062 2.9a15.326 15.326 0 0 1-21.675 21.675a15.318 15.318 0 0 1-3.326-16.704a15.297 15.297 0 0 1 3.326-4.971c1.481-1.475 3.125-2.594 5.019-3.344v-54.913a15.216 15.216 0 0 1-5.019-3.343a15.315 15.315 0 0 1-3.3-16.757L91.644 58.813l-59.875 59.812a12.88 12.88 0 0 0-2.795 14.04a12.88 12.88 0 0 0 2.795 4.179l87.325 87.312a12.884 12.884 0 0 0 4.177 2.793a12.888 12.888 0 0 0 9.858 0a12.884 12.884 0 0 0 4.177-2.793l86.919-86.781a12.882 12.882 0 0 0 3.776-9.109a12.876 12.876 0 0 0-3.776-9.11" />
                </g>
                <defs>
                    <clipPath id="skillIconsGit0">
                        <path fill="#fff" d="M28 28h200v200H28z" />
                    </clipPath>
                </defs>
            </g>
        </symbol>

        <symbol viewBox="0 0 16 16" id="uparrow-icon">
            <path fill="#FFFFFF" fill-rule="evenodd"
                d="M8 15a.5.5 0 0 0 .5-.5V2.707l3.146 3.147a.5.5 0 0 0 .708-.708l-4-4a.5.5 0 0 0-.708 0l-4 4a.5.5 0 1 0 .708.708L7.5 2.707V14.5a.5.5 0 0 0 .5.5z" />
        </symbol>

        <symbol viewBox="0 0 32 32" id="email-icon">
            <path stroke="none"
                d="M28 6H4a2 2 0 0 0-2 2v16a2 2 0 0 0 2 2h24a2 2 0 0 0 2-2V8a2 2 0 0 0-2-2Zm-2.2 2L16 14.78L6.2 8ZM4 24V8.91l11.43 7.91a1 1 0 0 0 1.14 0L28 8.91V24Z" />
        </symbol>

        <symbol viewBox="0 0 24 24" id="linkedin-icon">
            <path stroke="none"
                d="M19 3a2 2 0 0 1 2 2v14a2 2 0 0 1-2 2H5a2 2 0 0 1-2-2V5a2 2 0 0 1 2-2h14m-.5 15.5v-5.3a3.26 3.26 0 0 0-3.26-3.26c-.85 0-1.84.52-2.32 1.3v-1.11h-2.79v8.37h2.79v-4.93c0-.77.62-1.4 1.39-1.4a1.4 1.4 0 0 1 1.4 1.4v4.93h2.79M6.88 8.56a1.68 1.68 0 0 0 1.68-1.68c0-.93-.75-1.69-1.68-1.69a1.69 1.69 0 0 0-1.69 1.69c0 .93.76 1.68 1.69 1.68m1.39 9.94v-8.37H5.5v8.37h2.77Z" />
        </symbol>

        <symbol viewBox="0 0 16 16" id="github-icon">
            <path stroke="none"
                d="M8 0C3.58 0 0 3.58 0 8c0 3.54 2.29 6.53 5.47 7.59c.4.07.55-.17.55-.38c0-.19-.01-.82-.01-1.49c-2.01.37-2.53-.49-2.69-.94c-.09-.23-.48-.94-.82-1.13c-.28-.15-.68-.52-.01-.53c.63-.01 1.08.58 1.23.82c.72 1.21 1.87.87 2.33.66c.07-.52.28-.87.51-1.07c-1.78-.2-3.64-.89-3.64-3.95c0-.87.31-1.59.82-2.15c-.08-.2-.36-1.02.08-2.12c0 0 .67-.21 2.2.82c.64-.18 1.32-.27 2-.27c.68 0 1.36.09 2 .27c1.53-1.04 2.2-.82 2.2-.82c.44 1.1.16 1.92.08 2.12c.51.56.82 1.27.82 2.15c0 3.07-1.87 3.75-3.65 3.95c.29.25.54.73.54 1.48c0 1.07-.01 1.93-.01 2.2c0 .21.15.46.55.38A8.012 8.012 0 0 0 16 8c0-4.42-3.58-8-8-8z" />
        </symbol>

        <symbol viewBox="0 0 24 24" id="x-icon">
            <path stroke="none"
                d="M18.205 2.25h3.308l-7.227 8.26l8.502 11.24H16.13l-5.214-6.817L4.95 21.75H1.64l7.73-8.835L1.215 2.25H8.04l4.713 6.231l5.45-6.231Zm-1.161 17.52h1.833L7.045 4.126H5.078L17.044 19.77Z" />
        </symbol>
    </defs>
</svg>